<?xml version="1.0" encoding="UTF-8" standalone="no"?>
<!-- Created with Inkscape (http://www.inkscape.org/) -->

<svg
   width="210mm"
   height="297mm"
   viewBox="0 0 210 297"
   version="1.1"
   id="svg1"
   xml:space="preserve"
   inkscape:version="1.4.2 (1:1.4.2+202505120738+ebf0e940d0)"
   sodipodi:docname="chapeau_noel.svg"
   xmlns:inkscape="http://www.inkscape.org/namespaces/inkscape"
   xmlns:sodipodi="http://sodipodi.sourceforge.net/DTD/sodipodi-0.dtd"
   xmlns="http://www.w3.org/2000/svg"
   xmlns:svg="http://www.w3.org/2000/svg"><sodipodi:namedview
     id="namedview1"
     pagecolor="#ffffff"
     bordercolor="#000000"
     borderopacity="0.25"
     inkscape:showpageshadow="2"
     inkscape:pageopacity="0.0"
     inkscape:pagecheckerboard="0"
     inkscape:deskcolor="#d1d1d1"
     inkscape:document-units="mm"
     inkscape:zoom="1.2897736"
     inkscape:cx="422.16712"
     inkscape:cy="654.76608"
     inkscape:window-width="1856"
     inkscape:window-height="1136"
     inkscape:window-x="0"
     inkscape:window-y="0"
     inkscape:window-maximized="1"
     inkscape:current-layer="layer1" /><defs
     id="defs1"><clipPath
       clipPathUnits="userSpaceOnUse"
       id="clipPath1"><rect
         style="fill:none;stroke:#000000;stroke-width:0.0529167"
         id="rect2"
         width="34.784748"
         height="31.289219"
         x="67.352821"
         y="167.87051" /></clipPath></defs><g
     inkscape:label="Layer 1"
     inkscape:groupmode="layer"
     id="layer1"><path
       style="fill:none;stroke:#000000;stroke-width:0.753;stroke-dasharray:none"
       d="m 97.313516,182.13395 c 0,0 0.333842,-9.81442 -10.722953,-11.19193 -6.360797,-0.67915 -12.925113,5.44468 -14.1286,7.82635 -1.569971,-1.20169 -2.651436,-0.86739 -3.533118,-0.54064 -1.033155,0.38289 -2.013825,1.39709 -2.142285,2.31552 -0.230091,1.64505 -0.06723,3.00621 1.511888,4.37821 1.508096,1.31028 2.445071,1.02917 3.248123,0.93404 1.712783,-0.6436 1.948997,-1.43613 2.369218,-2.28976 0.511498,-1.56445 -0.242444,-3.73001 -0.925388,-4.29574 -1.252845,-1.3769 -2.568703,-1.35157 -2.568703,-1.35157 -1.89914,-0.0324 -2.934417,1.2387 -3.360316,1.84488 -0.645929,1.32471 -0.243467,2.89703 -0.1486,3.1361 0.520847,1.94816 2.537664,2.83513 2.6862,2.82778 1.696525,0.88973 3.25678,-0.63049 3.559259,-0.96173 1.483551,-1.70619 0.820476,-3.38251 0.820476,-3.38251 1.187365,-0.5833 3.037956,-0.003 4.748784,-1.11156 0.329193,0.42119 -0.03406,1.99673 -0.03406,1.99673 0,0 -0.443816,-0.38195 -0.850877,-0.29984 -0.647153,0.23631 -1.059857,1.26631 -1.171889,1.99657 -0.228381,1.027 -0.729811,3.33288 -0.20674,4.94672 0.521267,1.71925 1.637479,1.91297 2.855423,2.27933 4.412887,0.98854 12.057874,0.71974 15.4147,-0.018 3.136574,0.12203 3.743518,-1.67782 3.888953,-2.16876 0,0 0.262747,-3.13818 0.05528,-4.63567 0.06284,-1.27357 -0.711776,-1.91071 -0.711776,-1.91071 -1.186226,-0.36288 -1.382224,0.28781 -3.58108,0.63408 -3.055853,0.77023 -6.658903,0.56673 -9.009765,0.52663 -3.115476,0.074 -4.091104,1e-5 -4.972511,-0.13451 -0.8814,-0.13453 -1.397507,-0.4902 -1.662992,-1.16754"
       id="path4"
       sodipodi:nodetypes="cccsssccccccccccccccccccccczc" /></g></svg>
